<svg xmlns="http://www.w3.org/2000/svg" width="180" height="180" viewBox="0 0 180 180"><defs><style>.a,.g{fill:#fff;}.a{stroke:#707070;opacity:0;}.b{fill:#662e6a;}.c{fill:#65666a;}.d{fill:#006478;}.e{fill:#338393;}.f{fill:#66a2ae;}.h{stroke:none;}.i{fill:none;}</style></defs><g transform="translate(-85 -243)"><g class="a" transform="translate(85 243)"><rect class="h" width="180" height="180"/><rect class="i" x="0.5" y="0.5" width="179" height="179"/></g><g transform="translate(-862.2 -333.808)"><g transform="translate(989.2 576.808)"><path class="b" d="M1036.855,706.306a5.265,5.265,0,0,1-2.36-.557L992.24,684.038a5.277,5.277,0,0,1-2.865-4.692v-7.331l47.48,23.117,47.479-23.117v7.331a5.277,5.277,0,0,1-2.865,4.692l-42.256,21.711A5.262,5.262,0,0,1,1036.855,706.306Z" transform="translate(-989.107 -526.306)"/><path class="c" d="M1058.187,620.964H1049V604.87a18.88,18.88,0,1,0-37.759,0v16.094h-9.182V604.87a28.062,28.062,0,1,1,56.124,0Z" transform="translate(-982.377 -576.808)"/><path class="d" d="M1036.674,672.839v29.583L989.2,678.685V647.02l40.159,20.095-1.24,5.724Z" transform="translate(-989.2 -539.565)"/><path class="e" d="M1032.282,666.365l-2.923,13.544L989.2,659.814V622.9l38.98,19.482a13.947,13.947,0,0,0,4.1,23.982Z" transform="translate(-989.2 -552.359)"/><g transform="translate(47.474 54.701)"><path class="d" d="M1067.71,647.02v31.665l-47.49,23.737V672.839h9.106l-1.285-5.969Z" transform="translate(-1020.22 -594.266)"/><path class="e" d="M1066,622.9v36.914l-39.669,19.85-2.877-13.3a13.945,13.945,0,0,0,3.887-24.15Z" transform="translate(-1018.507 -607.06)"/><path class="f" d="M1067.71,617.83v10.56L1029.051,647.7a13.875,13.875,0,0,0-8.555-2.939h-.276V612.55h42.21A5.3,5.3,0,0,1,1067.71,617.83Z" transform="translate(-1020.22 -612.55)"/></g><path class="f" d="M1036.674,612.55v32.216a13.87,13.87,0,0,0-8.494,3.107L989.2,628.39V617.83a5.3,5.3,0,0,1,5.28-5.28Z" transform="translate(-989.2 -557.849)"/><path class="f" d="M1020.14,638.577l.122-.6v.658Z" transform="translate(-972.788 -544.36)"/><g transform="translate(47.352 93.62)"><path class="g" d="M1020.262,637.98v.658l-.122-.061Z" transform="translate(-1020.14 -637.98)"/><path class="g" d="M1020.262,637.98v.658l-.122-.061Z" transform="translate(-1020.14 -637.98)"/></g></g></g></g></svg>